<mxfile host="app.diagrams.net" modified="2021-06-29T07:13:11.945Z" agent="5.0 (Windows NT 10.0; Win64; x64) AppleWebKit/537.36 (KHTML, like Gecko) Chrome/91.0.4472.114 Safari/537.36" etag="tWHLY_4ZPzxstpegQv5c" version="14.8.2" type="github">
  <diagram id="Dk05JSeIewRp0DhtvCj1" name="Page-1">
    <mxGraphModel dx="1422" dy="849" grid="1" gridSize="10" guides="1" tooltips="1" connect="1" arrows="1" fold="1" page="1" pageScale="1" pageWidth="827" pageHeight="1169" math="0" shadow="1">
      <root>
        <mxCell id="0" />
        <mxCell id="1" parent="0" />
        <mxCell id="UtoQdatV8aoN5Y116QVs-1" value="Luac Header" style="rounded=1;whiteSpace=wrap;html=1;fillColor=#ffcc99;shadow=0;glass=0;strokeColor=none;" vertex="1" parent="1">
          <mxGeometry x="350" y="270" width="120" height="60" as="geometry" />
        </mxCell>
        <mxCell id="UtoQdatV8aoN5Y116QVs-2" value="Function" style="rounded=1;whiteSpace=wrap;html=1;align=center;horizontal=1;verticalAlign=top;fillColor=#e1d5e7;shadow=0;strokeColor=none;" vertex="1" parent="1">
          <mxGeometry x="350" y="390" width="120" height="410" as="geometry" />
        </mxCell>
        <mxCell id="UtoQdatV8aoN5Y116QVs-4" value="Sizeupvalues" style="rounded=1;whiteSpace=wrap;html=1;fillColor=#dae8fc;shadow=0;strokeColor=none;" vertex="1" parent="1">
          <mxGeometry x="350" y="330" width="120" height="60" as="geometry" />
        </mxCell>
        <mxCell id="UtoQdatV8aoN5Y116QVs-5" value="Function Header" style="rounded=1;whiteSpace=wrap;html=1;verticalAlign=middle;horizontal=1;fillColor=#fff2cc;shadow=0;strokeColor=none;" vertex="1" parent="1">
          <mxGeometry x="350" y="417" width="120" height="60" as="geometry" />
        </mxCell>
        <mxCell id="UtoQdatV8aoN5Y116QVs-6" value="Code" style="rounded=1;whiteSpace=wrap;html=1;verticalAlign=middle;fillColor=#fff2cc;shadow=0;strokeColor=none;" vertex="1" parent="1">
          <mxGeometry x="350" y="477" width="120" height="60" as="geometry" />
        </mxCell>
        <mxCell id="UtoQdatV8aoN5Y116QVs-7" value="Constants" style="rounded=1;whiteSpace=wrap;html=1;verticalAlign=middle;fillColor=#fff2cc;shadow=0;strokeColor=none;" vertex="1" parent="1">
          <mxGeometry x="350" y="537" width="120" height="60" as="geometry" />
        </mxCell>
        <mxCell id="UtoQdatV8aoN5Y116QVs-8" value="Upvalues" style="rounded=1;whiteSpace=wrap;html=1;verticalAlign=middle;fillColor=#fff2cc;shadow=0;strokeColor=none;" vertex="1" parent="1">
          <mxGeometry x="350" y="597" width="120" height="60" as="geometry" />
        </mxCell>
        <mxCell id="UtoQdatV8aoN5Y116QVs-9" value="Protos" style="rounded=1;whiteSpace=wrap;html=1;verticalAlign=middle;fillColor=#fff2cc;shadow=0;strokeColor=none;" vertex="1" parent="1">
          <mxGeometry x="350" y="657" width="120" height="60" as="geometry" />
        </mxCell>
        <mxCell id="UtoQdatV8aoN5Y116QVs-12" value="Debug" style="rounded=1;whiteSpace=wrap;html=1;verticalAlign=middle;fillColor=#fff2cc;shadow=0;strokeColor=none;" vertex="1" parent="1">
          <mxGeometry x="350" y="717" width="120" height="60" as="geometry" />
        </mxCell>
        <mxCell id="UtoQdatV8aoN5Y116QVs-23" value="" style="shape=curlyBracket;whiteSpace=wrap;html=1;rounded=1;flipH=1;shadow=0;glass=0;labelBackgroundColor=none;fontColor=#000000;strokeWidth=2;fillColor=none;verticalAlign=middle;strokeColor=#8A8A8A;" vertex="1" parent="1">
          <mxGeometry x="320" y="215" width="20" height="170" as="geometry" />
        </mxCell>
        <mxCell id="UtoQdatV8aoN5Y116QVs-24" value="&lt;p&gt;LUA_SIGNATURE&lt;br&gt;LUAC_VERSION&lt;br&gt;LUAC_FORMAT&lt;br&gt;LUAC_DATA&lt;br&gt;INT_SIZE&lt;br&gt;SIZE_T_SIZE&lt;br&gt;INSTRUCTION_SIZE&lt;br&gt;INTEGER_SIZE&lt;br&gt;NUMBER_SIZE&lt;br&gt;LUAC_INT&lt;br&gt;LUAC_NUM&lt;/p&gt;" style="text;html=1;strokeColor=none;fillColor=none;align=left;verticalAlign=middle;whiteSpace=wrap;rounded=0;shadow=0;glass=0;labelBackgroundColor=none;fontColor=#000000;" vertex="1" parent="1">
          <mxGeometry x="210" y="215" width="110" height="170" as="geometry" />
        </mxCell>
        <mxCell id="UtoQdatV8aoN5Y116QVs-25" value="" style="line;strokeWidth=2;html=1;rounded=1;shadow=0;glass=0;labelBackgroundColor=none;fontColor=#000000;fillColor=none;verticalAlign=middle;strokeColor=#8A8A8A;" vertex="1" parent="1">
          <mxGeometry x="210" y="210" width="110" height="10" as="geometry" />
        </mxCell>
        <mxCell id="UtoQdatV8aoN5Y116QVs-26" value="" style="line;strokeWidth=2;html=1;rounded=1;shadow=0;glass=0;labelBackgroundColor=none;fontColor=#000000;fillColor=none;verticalAlign=middle;strokeColor=#8A8A8A;" vertex="1" parent="1">
          <mxGeometry x="210" y="380" width="110" height="10" as="geometry" />
        </mxCell>
        <mxCell id="UtoQdatV8aoN5Y116QVs-28" value="&lt;div&gt;SOURCE&lt;/div&gt;&lt;div&gt;LINEDEFINED&lt;/div&gt;&lt;div&gt;LASTLINEDEFINED&lt;/div&gt;&lt;div&gt;NUMPARAMS&lt;/div&gt;&lt;div&gt;IS_VARARG&lt;/div&gt;&lt;div&gt;MAXSTACKSIZE&lt;/div&gt;" style="text;html=1;strokeColor=none;fillColor=none;align=left;verticalAlign=middle;whiteSpace=wrap;rounded=0;shadow=0;glass=0;labelBackgroundColor=none;fontColor=#000000;sketch=0;fontStyle=0;spacing=2;" vertex="1" parent="1">
          <mxGeometry x="500" y="405.5" width="100" height="83" as="geometry" />
        </mxCell>
        <mxCell id="UtoQdatV8aoN5Y116QVs-29" value="" style="line;strokeWidth=2;html=1;rounded=1;shadow=0;glass=0;labelBackgroundColor=none;fontColor=#000000;fillColor=none;verticalAlign=middle;strokeColor=#8A8A8A;" vertex="1" parent="1">
          <mxGeometry x="500" y="389" width="110" height="10" as="geometry" />
        </mxCell>
        <mxCell id="UtoQdatV8aoN5Y116QVs-30" value="" style="line;strokeWidth=2;html=1;rounded=1;shadow=0;glass=0;labelBackgroundColor=none;fontColor=#000000;fillColor=none;verticalAlign=middle;strokeColor=#8A8A8A;" vertex="1" parent="1">
          <mxGeometry x="500" y="494" width="110" height="12.5" as="geometry" />
        </mxCell>
        <mxCell id="UtoQdatV8aoN5Y116QVs-32" value="" style="shape=curlyBracket;whiteSpace=wrap;html=1;rounded=1;shadow=0;glass=0;labelBackgroundColor=none;sketch=0;fontColor=#000000;strokeColor=#8A8A8A;strokeWidth=2;fillColor=none;align=left;verticalAlign=middle;" vertex="1" parent="1">
          <mxGeometry x="480" y="394" width="20" height="106" as="geometry" />
        </mxCell>
        <mxCell id="UtoQdatV8aoN5Y116QVs-40" value="" style="shape=curlyBracket;whiteSpace=wrap;html=1;rounded=1;flipH=1;shadow=0;glass=0;labelBackgroundColor=none;fontColor=#000000;strokeWidth=2;fillColor=none;verticalAlign=middle;strokeColor=#8A8A8A;" vertex="1" parent="1">
          <mxGeometry x="320" y="484" width="20" height="46" as="geometry" />
        </mxCell>
        <mxCell id="UtoQdatV8aoN5Y116QVs-42" value="" style="line;strokeWidth=2;html=1;rounded=1;shadow=0;glass=0;labelBackgroundColor=none;fontColor=#000000;fillColor=none;verticalAlign=middle;strokeColor=#8A8A8A;" vertex="1" parent="1">
          <mxGeometry x="210" y="479.5" width="110" height="10" as="geometry" />
        </mxCell>
        <mxCell id="UtoQdatV8aoN5Y116QVs-43" value="" style="line;strokeWidth=2;html=1;rounded=1;shadow=0;glass=0;labelBackgroundColor=none;fontColor=#000000;fillColor=none;verticalAlign=middle;strokeColor=#8A8A8A;" vertex="1" parent="1">
          <mxGeometry x="210" y="525" width="110" height="10" as="geometry" />
        </mxCell>
        <mxCell id="UtoQdatV8aoN5Y116QVs-46" value="SIZECODE&lt;br&gt;CODE" style="text;html=1;strokeColor=none;fillColor=none;align=left;verticalAlign=middle;whiteSpace=wrap;rounded=0;shadow=0;glass=0;labelBackgroundColor=none;sketch=0;fontColor=#000000;" vertex="1" parent="1">
          <mxGeometry x="210" y="486.38" width="110" height="41.25" as="geometry" />
        </mxCell>
        <mxCell id="UtoQdatV8aoN5Y116QVs-47" value="&lt;div&gt;SIZE&lt;/div&gt;&lt;div&gt;VALUE&lt;/div&gt;&lt;div&gt;VALUE&lt;/div&gt;&lt;div&gt;...&lt;/div&gt;" style="text;html=1;strokeColor=none;fillColor=none;align=left;verticalAlign=middle;whiteSpace=wrap;rounded=0;shadow=0;glass=0;labelBackgroundColor=none;fontColor=#000000;sketch=0;fontStyle=0;spacing=2;" vertex="1" parent="1">
          <mxGeometry x="500" y="534.63" width="100" height="61.37" as="geometry" />
        </mxCell>
        <mxCell id="UtoQdatV8aoN5Y116QVs-48" value="" style="line;strokeWidth=2;html=1;rounded=1;shadow=0;glass=0;labelBackgroundColor=none;fontColor=#000000;fillColor=none;verticalAlign=middle;strokeColor=#8A8A8A;" vertex="1" parent="1">
          <mxGeometry x="500" y="527.25" width="110" height="10" as="geometry" />
        </mxCell>
        <mxCell id="UtoQdatV8aoN5Y116QVs-49" value="" style="line;strokeWidth=2;html=1;rounded=1;shadow=0;glass=0;labelBackgroundColor=none;fontColor=#000000;fillColor=none;verticalAlign=middle;strokeColor=#8A8A8A;" vertex="1" parent="1">
          <mxGeometry x="500" y="594" width="110" height="12.5" as="geometry" />
        </mxCell>
        <mxCell id="UtoQdatV8aoN5Y116QVs-50" value="" style="shape=curlyBracket;whiteSpace=wrap;html=1;rounded=1;shadow=0;glass=0;labelBackgroundColor=none;sketch=0;fontColor=#000000;strokeColor=#8A8A8A;strokeWidth=2;fillColor=none;align=left;verticalAlign=middle;" vertex="1" parent="1">
          <mxGeometry x="480" y="532.5" width="20" height="67.5" as="geometry" />
        </mxCell>
        <mxCell id="UtoQdatV8aoN5Y116QVs-51" value="&lt;div&gt;SIZE&lt;/div&gt;&lt;div&gt;VALUE&lt;/div&gt;&lt;div&gt;VALUE&lt;/div&gt;&lt;div&gt;...&lt;/div&gt;" style="text;html=1;strokeColor=none;fillColor=none;align=left;verticalAlign=middle;whiteSpace=wrap;rounded=0;shadow=0;glass=0;labelBackgroundColor=none;fontColor=#000000;sketch=0;fontStyle=0;spacing=2;" vertex="1" parent="1">
          <mxGeometry x="210" y="596.76" width="100" height="61.37" as="geometry" />
        </mxCell>
        <mxCell id="UtoQdatV8aoN5Y116QVs-52" value="" style="line;strokeWidth=2;html=1;rounded=1;shadow=0;glass=0;labelBackgroundColor=none;fontColor=#000000;fillColor=none;verticalAlign=middle;strokeColor=#8A8A8A;" vertex="1" parent="1">
          <mxGeometry x="210" y="589.38" width="110" height="10" as="geometry" />
        </mxCell>
        <mxCell id="UtoQdatV8aoN5Y116QVs-53" value="" style="line;strokeWidth=2;html=1;rounded=1;shadow=0;glass=0;labelBackgroundColor=none;fontColor=#000000;fillColor=none;verticalAlign=middle;strokeColor=#8A8A8A;" vertex="1" parent="1">
          <mxGeometry x="210" y="654.13" width="110" height="12.5" as="geometry" />
        </mxCell>
        <mxCell id="UtoQdatV8aoN5Y116QVs-55" value="" style="shape=curlyBracket;whiteSpace=wrap;html=1;rounded=1;flipH=1;shadow=0;glass=0;labelBackgroundColor=none;fontColor=#000000;strokeWidth=2;fillColor=none;verticalAlign=middle;strokeColor=#8A8A8A;" vertex="1" parent="1">
          <mxGeometry x="320" y="594" width="20" height="66" as="geometry" />
        </mxCell>
        <mxCell id="UtoQdatV8aoN5Y116QVs-56" value="&lt;div&gt;SIZE&lt;/div&gt;&lt;div&gt;FUNCTION&lt;/div&gt;&lt;div&gt;&lt;div&gt;FUNCTION&lt;/div&gt;&lt;/div&gt;&lt;div&gt;...&lt;/div&gt;" style="text;html=1;strokeColor=none;fillColor=none;align=left;verticalAlign=middle;whiteSpace=wrap;rounded=0;shadow=0;glass=0;labelBackgroundColor=none;fontColor=#000000;sketch=0;fontStyle=0;spacing=2;" vertex="1" parent="1">
          <mxGeometry x="500" y="655.76" width="100" height="61.37" as="geometry" />
        </mxCell>
        <mxCell id="UtoQdatV8aoN5Y116QVs-57" value="" style="line;strokeWidth=2;html=1;rounded=1;shadow=0;glass=0;labelBackgroundColor=none;fontColor=#000000;fillColor=none;verticalAlign=middle;strokeColor=#8A8A8A;" vertex="1" parent="1">
          <mxGeometry x="500" y="647.38" width="110" height="10" as="geometry" />
        </mxCell>
        <mxCell id="UtoQdatV8aoN5Y116QVs-58" value="" style="line;strokeWidth=2;html=1;rounded=1;shadow=0;glass=0;labelBackgroundColor=none;fontColor=#000000;fillColor=none;verticalAlign=middle;strokeColor=#8A8A8A;" vertex="1" parent="1">
          <mxGeometry x="500" y="714.13" width="110" height="12.5" as="geometry" />
        </mxCell>
        <mxCell id="UtoQdatV8aoN5Y116QVs-59" value="" style="shape=curlyBracket;whiteSpace=wrap;html=1;rounded=1;shadow=0;glass=0;labelBackgroundColor=none;sketch=0;fontColor=#000000;strokeColor=#8A8A8A;strokeWidth=2;fillColor=none;align=left;verticalAlign=middle;" vertex="1" parent="1">
          <mxGeometry x="480" y="652.63" width="20" height="67.5" as="geometry" />
        </mxCell>
        <mxCell id="UtoQdatV8aoN5Y116QVs-60" value="&lt;div&gt;SIZELINEINFO&lt;/div&gt;&lt;div&gt;LINEINFO&lt;/div&gt;&lt;div&gt;SIZELOCVARS&lt;/div&gt;&lt;div&gt;LOCVARS&lt;/div&gt;&lt;div&gt;SIZEUPVALUES&lt;/div&gt;&lt;div&gt;UPVALUES&lt;/div&gt;" style="text;html=1;strokeColor=none;fillColor=none;align=left;verticalAlign=middle;whiteSpace=wrap;rounded=0;shadow=0;glass=0;labelBackgroundColor=none;fontColor=#000000;sketch=0;fontStyle=0;spacing=2;" vertex="1" parent="1">
          <mxGeometry x="210" y="703.44" width="100" height="87.12" as="geometry" />
        </mxCell>
        <mxCell id="UtoQdatV8aoN5Y116QVs-61" value="" style="line;strokeWidth=2;html=1;rounded=1;shadow=0;glass=0;labelBackgroundColor=none;fontColor=#000000;fillColor=none;verticalAlign=middle;strokeColor=#8A8A8A;" vertex="1" parent="1">
          <mxGeometry x="210" y="697.44" width="110" height="10" as="geometry" />
        </mxCell>
        <mxCell id="UtoQdatV8aoN5Y116QVs-62" value="" style="line;strokeWidth=2;html=1;rounded=1;shadow=0;glass=0;labelBackgroundColor=none;fontColor=#000000;fillColor=none;verticalAlign=middle;strokeColor=#8A8A8A;" vertex="1" parent="1">
          <mxGeometry x="210" y="783.5" width="110" height="12.5" as="geometry" />
        </mxCell>
        <mxCell id="UtoQdatV8aoN5Y116QVs-63" value="" style="shape=curlyBracket;whiteSpace=wrap;html=1;rounded=1;flipH=1;shadow=0;glass=0;labelBackgroundColor=none;fontColor=#000000;strokeWidth=2;fillColor=none;verticalAlign=middle;strokeColor=#8A8A8A;" vertex="1" parent="1">
          <mxGeometry x="320" y="701.98" width="20" height="88.02" as="geometry" />
        </mxCell>
        <mxCell id="UtoQdatV8aoN5Y116QVs-64" value="&lt;div&gt;VARNAME&lt;/div&gt;&lt;div&gt;STARTPC&lt;/div&gt;&lt;div&gt;ENDPC&lt;/div&gt;" style="text;html=1;strokeColor=none;fillColor=none;align=left;verticalAlign=middle;whiteSpace=wrap;rounded=0;shadow=0;glass=0;labelBackgroundColor=none;fontColor=#000000;sketch=0;fontStyle=0;spacing=2;" vertex="1" parent="1">
          <mxGeometry x="80" y="730.34" width="100" height="49.18" as="geometry" />
        </mxCell>
        <mxCell id="UtoQdatV8aoN5Y116QVs-65" value="" style="line;strokeWidth=2;html=1;rounded=1;shadow=0;glass=0;labelBackgroundColor=none;fontColor=#000000;fillColor=none;verticalAlign=middle;strokeColor=#8A8A8A;" vertex="1" parent="1">
          <mxGeometry x="80" y="721.3100000000001" width="110" height="10" as="geometry" />
        </mxCell>
        <mxCell id="UtoQdatV8aoN5Y116QVs-66" value="" style="line;strokeWidth=2;html=1;rounded=1;shadow=0;glass=0;labelBackgroundColor=none;fontColor=#000000;fillColor=none;verticalAlign=middle;strokeColor=#8A8A8A;" vertex="1" parent="1">
          <mxGeometry x="80" y="778.0600000000001" width="110" height="12.5" as="geometry" />
        </mxCell>
        <mxCell id="UtoQdatV8aoN5Y116QVs-67" value="" style="shape=curlyBracket;whiteSpace=wrap;html=1;rounded=1;flipH=1;shadow=0;glass=0;labelBackgroundColor=none;fontColor=#000000;strokeWidth=2;fillColor=none;verticalAlign=middle;strokeColor=#8A8A8A;" vertex="1" parent="1">
          <mxGeometry x="190" y="725.99" width="20" height="57.88" as="geometry" />
        </mxCell>
      </root>
    </mxGraphModel>
  </diagram>
</mxfile>
